# xmcd
#
# Track frame offsets: 
#        187
#        14362
#        31190
#        46385
#        60147
#        73342
#        87507
#        102070
#        119855
#        135127
#
# Disc length: 2026 seconds
#
# Revision: 3
# Processed by: cddbd v1.5.2PL0 Copyright (c) Steve Scherf et al.
# Submitted via: ExactAudioCopy v0.90b4
#
DISCID=7f07e80a
DTITLE=Lee Greenwood - Somebody's Gonna Love You
DYEAR=1983
DGENRE=
TTITLE0=I.O.U.
TTITLE1=Somebody's Gonna Love You
TTITLE2=Going, Going, Gone
TTITLE3=Call It What You Want To (It's Still Love)
TTITLE4=Barely Holding On
TTITLE5=Love Won't Let Us Say Goodbye
TTITLE6=Ladies Love
TTITLE7=The Wind Beneath My Wings
TTITLE8=Think About The Good Times
TTITLE9=Someone Who Remembers
EXTD=
EXTT0=
EXTT1=
EXTT2=
EXTT3=
EXTT4=
EXTT5=
EXTT6=
EXTT7=
EXTT8=
EXTT9=
PLAYORDER=
